<svg width="375" height="812" viewBox="0 0 375 812" fill="none" xmlns="http://www.w3.org/2000/svg">
<g clip-path="url(#clip0)">
<rect width="375" height="812" fill="url(#paint0_linear)"/>
<path d="M158.668 706.854C65.8589 717.222 21.5158 720.913 -60.6379 833.298L258.642 1033.17L535.941 674.998C523.923 662.424 484.742 630.231 424.167 602.045C348.448 566.814 251.476 696.485 158.668 706.854Z" fill="#2AFC98" fill-opacity="0.4"/>
<path d="M169.462 720.325C76.6531 730.693 32.3099 734.385 -49.8437 846.77L269.436 1046.64L546.736 688.469C534.717 675.896 495.536 643.702 434.961 615.517C359.242 580.286 262.27 709.957 169.462 720.325Z" fill="#2AFC98" fill-opacity="0.5"/>
<path d="M180.256 733.797C87.4473 744.165 43.1041 747.857 -39.0495 860.241L280.23 1060.11L557.53 701.941C545.511 689.367 506.33 657.174 445.755 628.989C370.036 593.757 273.065 723.429 180.256 733.797Z" fill="#2AFC98"/>
<path fill-rule="evenodd" clip-rule="evenodd" d="M306.446 281.426C305.995 280.441 305.54 279.451 305.082 278.453C288.479 242.276 251.582 212.335 215.86 183.348C169.615 145.822 125.339 109.893 129.609 64.0986C131.863 39.9345 135.531 18.3514 139.629 0L329.44 0L375 16.6475V387.969C342.792 360.651 327.737 327.836 306.446 281.426Z" fill="#2AFC98" fill-opacity="0.4"/>
<path fill-rule="evenodd" clip-rule="evenodd" d="M297.892 295.597C297.44 294.612 296.986 293.621 296.528 292.624C279.924 256.446 243.028 226.506 207.306 197.519C161.061 159.992 116.784 124.064 121.055 78.2691C123.918 47.5682 129.065 21.0337 134.475 0L282.105 0L375 33.9437V408.958C336.739 380.275 320.984 345.931 297.892 295.597Z" fill="#2AFC98" fill-opacity="0.4"/>
<path fill-rule="evenodd" clip-rule="evenodd" d="M315.001 267.256C314.549 266.271 314.094 265.28 313.637 264.283C297.033 228.105 260.136 198.165 224.414 169.178C178.169 131.651 133.893 95.7227 138.164 49.9281C139.861 31.7286 142.36 14.9933 145.242 0L375 0V366.033C348.494 340.264 334.313 309.352 315.001 267.256Z" fill="#2AFC98"/>
</g>
<defs>
<linearGradient id="paint0_linear" x1="187.5" y1="0" x2="187.5" y2="812" gradientUnits="userSpaceOnUse">
<stop stop-color="#28427B"/>
<stop offset="1" stop-color="#14213D"/>
</linearGradient>
<clipPath id="clip0">
<rect width="375" height="812" fill="white"/>
</clipPath>
</defs>
</svg>
